<svg xmlns="http://www.w3.org/2000/svg" width="41.517" height="56.799" viewBox="0 0 41.516983 56.798969"><path d="M26.083 47.676c-4.044-7.177-5.768-9.125-7.587-8.57-3.813 1.161-11.3-2.013-14.935-6.334-4.748-5.642-4.748-15.309 0-20.95C8.253 6.244 14.52 4.357 21.45 6.433c5.035 1.509 5.274 1.791 3.33 3.94-1.531 1.69-3.423 2.135-7.033 1.651-7.23-.97-11.504 2.845-11.504 10.272 0 4.28.743 6.219 3.118 8.142 6.405 5.187 15.396 1.926 16.908-6.133 1.062-5.66 4.2-8.76 5.995-5.924 1.835 2.901 1.511 5.508-1.392 11.204l-2.645 5.187 5.311 9.212c5.976 10.365 6.153 11.037 3.202 12.169-4.26 1.635-5.53.624-10.658-8.478zM12.833 23.61c-3.578-3.734-3.695-4.174-1.65-6.218 1.853-1.854 2.538-1.92 4.342-.423 1.866 1.548 3.406.522 11.953-7.968C34.19 2.334 37.956-.487 39.403.068c1.163.446 2.114 1.568 2.114 2.494 0 1.63-22.491 25.068-24.056 25.068-.428 0-2.51-1.808-4.628-4.019z" fill="#fefefe" stroke-width="1.333"/></svg>