<svg xmlns="http://www.w3.org/2000/svg" width="40" height="58.811" viewBox="0 0 40 58.810982"><path d="M0 51.315c0-4.123.566-7.496 1.257-7.496C3.124 43.82 12 49.26 12 50.403c0 .544-1.35 1.675-3 2.515-1.65.84-4.35 2.51-6 3.71l-3 2.183zm9.664 5.504c.388-1.17 4.996-1.78 15.445-2.044C37.762 54.455 40 54.705 40 56.442c0 1.718-2.458 2.044-15.444 2.044-11.762 0-15.313-.398-14.892-1.667zM14.1 44.723c-2.256-1.65-1.927-2.544 5.128-13.949 7.268-11.75 7.657-12.132 10.857-10.674 1.825.831 3.153 1.885 2.95 2.34-1.528 3.444-14.916 24.046-15.626 24.046-.494 0-1.983-.793-3.309-1.763zM3.667 38.9c-1.284-.335-2.334-.872-2.334-1.193 0-1.956 15.117-24.55 16.414-24.534 2.42.031 5.306 2.188 4.749 3.548C20.637 21.258 8.413 39.727 7.333 39.63c-.733-.066-2.383-.395-3.666-.73zm21.28-24.024C18.2 10.634 17.47 9.777 19.16 8.087c1.69-1.69 2.917-1.38 9.72 2.45 4.283 2.411 8.022 4.572 8.31 4.8.684.545-2.598 4.495-3.687 4.438-.46-.025-4.31-2.23-8.557-4.9zm4.69-6.105C22.246 4.267 20.99.823 26.452.046c4.598-.654 13.819 5.871 13.297 9.41-.616 4.173-2.336 4.056-10.114-.685z" fill="#fefefe" stroke-width="1.333"/></svg>