<svg xmlns="http://www.w3.org/2000/svg" width="57.129" height="64.153" viewBox="0 0 57.129456 64.153152"><path d="M36.042 62.136c-1-1.206-1.444-4.995-1.163-9.939.474-8.343-1.038-9.57-1.784-1.445l-.428 4.666L22 55.261c-5.867-.086-13.217-.86-16.333-1.718C.557 52.136 0 51.577 0 47.855c0-6.715 2.822-14.172 7.342-19.4l4.233-4.898 3.726 2.93c4.965 3.907 13.697 3.961 18.584.117 3.353-2.638 3.733-2.675 6.034-.592 1.351 1.223 3.795 4.74 5.43 7.815 1.724 3.242 4.726 6.432 7.145 7.591 3.946 1.892 4.194 2.458 4.573 10.45.24 5.082-.223 9.2-1.164 10.334-2.19 2.638-17.66 2.587-19.86-.066zM48 57.418c0-1.777.889-2.666 2.667-2.666 1.466 0 2.666-.6 2.666-1.334 0-.733-1.2-1.333-2.666-1.333-1.979 0-2.667-.889-2.667-3.444 0-4.132-3.127-3.742-3.749.467-.242 1.64-1.632 3.055-3.333 3.392L38 53.08l3 .991c1.698.562 3 2.081 3 3.503 0 1.381.9 2.511 2 2.511 1.111 0 2-1.185 2-2.667zm-1.444-16.855c1.294-1.114-7.401-.323-9.223.838-1.362.868-.298 1.014 3.334.458 2.933-.45 5.583-1.033 5.889-1.296zM17.48 26.224c-4.304-2.385-6.71-7.093-6.766-13.241-.13-14.002 19.958-18.04 26.463-5.319 2.85 5.574 1.803 11.04-3.044 15.888-4.981 4.981-10.802 5.916-16.653 2.672z" fill="#fefefe" stroke-width="1.333"/></svg>