<svg xmlns="http://www.w3.org/2000/svg" width="53.389" height="60.14" viewBox="0 0 53.388767 60.139618"><path d="M.361 33.106L.722 6.072l6.6-.418c4.691-.296 7.123-1.164 8.409-3 2.508-3.58 9.661-3.524 10.605.084.56 2.146 1.818 2.667 6.433 2.667 8.874 0 9.953.815 9.953 7.518 0 4.036-.637 6.143-2.017 6.673-2.616 1.004-5.983-1.822-5.983-5.021 0-3.015-1.734-3.234-4-.503-2.291 2.76-16.375 2.76-18.667 0-.912-1.1-2.486-2-3.496-2-1.481 0-1.837 4.001-1.837 20.666v20.667h18.093c18 0 18.09.015 17.666 3-.418 2.948-.789 3.006-21.453 3.367L0 60.14zM22.389 4.627c-1.271-1.27-3.818.787-2.871 2.32.562.91 1.308.887 2.266-.07.785-.785 1.057-1.798.605-2.25zm8.586 44.744c-9.098-5.547-9.803-17.515-1.445-24.547 5.88-4.947 12.996-4.68 19.146.72 4.132 3.628 4.713 4.905 4.713 10.37 0 7.057-2.37 11.246-8.015 14.165-5.207 2.693-9.138 2.5-14.399-.708zm11.106-12.016c3.698-7.297 3.862-7.95 2.002-7.95-.719 0-2.554 2.444-4.078 5.432-2.304 4.516-3.101 5.159-4.726 3.81-3.002-2.491-3.701-.544-1.184 3.297 2.781 4.246 3.808 3.655 7.986-4.59zm-31.359 9.383c0-3.555.445-4 4-4 3.556 0 4 .445 4 4 0 3.556-.444 4-4 4-3.555 0-4-.444-4-4zm5.333 0c0-.733-.6-1.333-1.333-1.333s-1.333.6-1.333 1.333c0 .734.6 1.334 1.333 1.334s1.333-.6 1.333-1.334zm-5.333-10c0-4.296.318-4.666 4-4.666 3.683 0 4 .37 4 4.666 0 4.297-.317 4.667-4 4.667-3.682 0-4-.37-4-4.667zm0-10.666c0-4.297.318-4.667 4-4.667 3.683 0 4 .37 4 4.667 0 4.296-.317 4.666-4 4.666-3.682 0-4-.37-4-4.666z" fill="#fefefe" stroke-width="1.333"/></svg>