<svg xmlns="http://www.w3.org/2000/svg" width="179.191" height="145.884" viewBox="0 0 179.19127 145.88399"><path d="M101.408 145.552c0-2.793 15.213-20.234 33.806-38.757l33.806-33.679-34.48-34.598c-18.964-19.028-33.357-35.72-31.984-37.093 1.372-1.373 19.177 14.186 39.565 34.574l37.07 37.07L140.3 111.85c-21.39 21.33-38.892 36.496-38.892 33.702zM36.28 109.278L0 72.885l38.873-38.763C60.253 12.802 77.746-2.41 77.746.316c0 2.727-15.212 20.222-33.805 38.879L10.135 73.116l33.806 33.679c31.68 31.562 37.553 38.876 31.213 38.876-1.427 0-18.92-16.377-38.874-36.393z" fill="#b0b0b0" stroke-width="3.38"/></svg>